<svg xmlns="http://www.w3.org/2000/svg" viewBox="0 0 227.64 73.46"><defs><style>.cls-1{fill:#6466ad;}</style></defs><g id="Layer_2" data-name="Layer 2"><g id="Layer_1-2" data-name="Layer 1"><path class="cls-1" d="M223,21.09a7.34,7.34,0,0,1-8.33-2.64l-1.75-2.39-2,2.16a7.32,7.32,0,0,1-12.61-6.14l.45-2.92-3,.09a7.35,7.35,0,0,1-7.21-4.93,7.17,7.17,0,0,1-.1-4.32H36.73A36.72,36.72,0,0,0,0,36.73H0A36.73,36.73,0,0,0,36.73,73.46H190.91a36.73,36.73,0,0,0,36.73-36.73h0A36.69,36.69,0,0,0,224,20.66,7.85,7.85,0,0,1,223,21.09Z"/></g></g></svg>