<svg xmlns="http://www.w3.org/2000/svg" viewBox="0 0 88.11 74.22"><defs><style>.cls-1{fill:#fff;}.cls-2{fill:#ffadb5;}</style></defs><g id="Layer_2" data-name="Layer 2"><g id="Layer_1-2" data-name="Layer 1"><path class="cls-1" d="M63.3,73.72A7.17,7.17,0,0,1,58,71.37a42.73,42.73,0,0,1-27.95,0,7.15,7.15,0,0,1-5.26,2.35h-.57a7.08,7.08,0,0,1-7.08-7.08,6.86,6.86,0,0,1,.37-2.2A42.59,42.59,0,0,1,2.33,39.52L2,37.88A77.58,77.58,0,0,1,.5,22.68,22.18,22.18,0,0,1,41.84,11.51l2.22,3.8,2.22-3.81A22.18,22.18,0,0,1,87.61,22.68a77.57,77.57,0,0,1-1.5,15.2l-.33,1.64a42.58,42.58,0,0,1-15.2,24.92,7,7,0,0,1-6.71,9.28ZM40.91,39.3l-.28.42a3,3,0,0,0-.24,1.2,3.33,3.33,0,0,0,.68,2l19.6,25.72A3.31,3.31,0,0,0,63.3,70h.57a3.3,3.3,0,0,0,2.62-5.31l-1.83-2.4L63.1,63.8l-2.67-2.67,1.92-1.92-8.5-11.16L52,49.91l-2.68-2.67L51.54,45l-2.28-3,3-2.29L61.84,52.3a27.69,27.69,0,0,0,9.34-15.7L71.51,35c.33-1.65.59-3.33.79-5l.06-.5,3.75.44-.06.5c-.2,1.77-.49,3.55-.84,5.31l-.33,1.64a31.37,31.37,0,0,1-10.75,18l4.46,5.85A38.88,38.88,0,0,0,82.08,38.78l.33-1.64a72.93,72.93,0,0,0,1.22-9.25H81.06V24.11H83.8V24c0-.44,0-.88,0-1.32a18.4,18.4,0,0,0-34.3-9.27L45.69,20a1.95,1.95,0,0,1-3.27,0l-3.85-6.6A18.4,18.4,0,0,0,14.45,6.22l2.13,2.13L13.91,11l-2.7-2.7A18.28,18.28,0,0,0,4.28,22.68q0,.66,0,1.32v.11H7.06v3.78H4.48a75.28,75.28,0,0,0,1.23,9.25L6,38.78A38.78,38.78,0,0,0,19.53,61.16L24,55.31a31.44,31.44,0,0,1-10.76-18L12.9,35.7c-.26-1.29-.48-2.6-.65-3.88l-.07-.5,3.74-.52.07.5c.16,1.2.37,2.44.62,3.67l.32,1.63a27.67,27.67,0,0,0,9.35,15.71L37.44,37.68a6.6,6.6,0,0,1,1.43-2l.37-.34,2.57,2.77-.36.34a3.09,3.09,0,0,0-.61.75ZM21.62,64.64a3.28,3.28,0,0,0-.67,2A3.31,3.31,0,0,0,24.25,70h.57a3.33,3.33,0,0,0,2.63-1.31L41.68,50l-3.62-4.75A6.9,6.9,0,0,1,37.33,44L27,57.63l2.12,2.11-2.67,2.67-1.76-1.75Zm10.94,3.53a39.09,39.09,0,0,0,23,0l-4.8-6.29a31.16,31.16,0,0,1-13.41,0Zm7.35-9.65a27.87,27.87,0,0,0,8.29,0l-4.14-5.44Z"/><path class="cls-1" d="M65.43,1A21.7,21.7,0,0,1,87.11,22.68a77.31,77.31,0,0,1-1.49,15.1l-.33,1.64A42,42,0,0,1,70,64.27a6.46,6.46,0,0,1,.47,2.37,6.59,6.59,0,0,1-6.58,6.58H63.3a6.61,6.61,0,0,1-5.11-2.44,42.13,42.13,0,0,1-28.26,0,6.64,6.64,0,0,1-5.11,2.44h-.57a6.59,6.59,0,0,1-6.58-6.58,6.66,6.66,0,0,1,.46-2.37A42,42,0,0,1,2.82,39.42L2.5,37.78A76.56,76.56,0,0,1,1,22.68,21.68,21.68,0,0,1,41.41,11.76l2.65,4.54,2.65-4.54A21.74,21.74,0,0,1,65.43,1M44.06,20.4a1.38,1.38,0,0,1-1.2-.64L39,13.16A19,19,0,0,0,22.68,3.78,18.74,18.74,0,0,0,13.62,6.1l2.25,2.25-2,2L11.25,7.66a18.86,18.86,0,0,0-7.47,15c0,.64,0,1.29.05,1.93H6.56v2.78H4a74.12,74.12,0,0,0,1.27,9.85l.33,1.64a39.2,39.2,0,0,0,14.06,23l5.07-6.64a30.91,30.91,0,0,1-11-18l-.33-1.63c-.25-1.28-.47-2.58-.65-3.86l2.75-.38c.17,1.23.38,2.47.63,3.69l.32,1.64A28.17,28.17,0,0,0,26.36,53L37.83,38a6.66,6.66,0,0,1,1.38-1.88l1.89,2a3.84,3.84,0,0,0-.9,1.26l0,0-.06.08a3.74,3.74,0,0,0-.28,1.42,3.84,3.84,0,0,0,.78,2.3L60.27,69a3.84,3.84,0,0,0,3,1.5h.57a3.81,3.81,0,0,0,3.8-3.8,3.85,3.85,0,0,0-.78-2.31l-2.18-2.86L63.1,63.1l-2-2L63,59.25l-9.11-12L52,49.21l-2-2,2.18-2.18L50,42.12l2.21-1.68L61.76,53A28.1,28.1,0,0,0,71.67,36.7L72,35.06c.33-1.67.6-3.37.8-5.05l2.76.32c-.21,1.76-.49,3.53-.84,5.27l-.33,1.65a30.85,30.85,0,0,1-11,18l5.07,6.64a39.25,39.25,0,0,0,14.06-23l.33-1.64a75.81,75.81,0,0,0,1.27-9.85H81.56V24.61h2.73c0-.64,0-1.29,0-1.93a18.9,18.9,0,0,0-35.23-9.52l-3.85,6.6a1.39,1.39,0,0,1-1.2.64M26.41,61.71,24.6,59.9l-3.38,4.44a3.81,3.81,0,0,0,3,6.11h.57a3.8,3.8,0,0,0,3-1.5L42.31,50,38.46,44.9a6.53,6.53,0,0,1-1-1.88L26.3,57.67l2.07,2.07-2,2m17.65-2.38a28.37,28.37,0,0,0,5-.45l-5-6.63L39,58.88a28.48,28.48,0,0,0,5.05.45m0,11.07a39.16,39.16,0,0,0,12.32-2L51,61.32a30.62,30.62,0,0,1-13.82,0l-5.42,7.11a39.18,39.18,0,0,0,12.33,2M65.43,0A22.76,22.76,0,0,0,45.84,11.25l-1.78,3.07-1.79-3.07A22.68,22.68,0,0,0,0,22.68,77.83,77.83,0,0,0,1.52,38l.32,1.64A43.14,43.14,0,0,0,17,64.62a7.42,7.42,0,0,0-.29,2,7.59,7.59,0,0,0,7.58,7.58h.57a7.67,7.67,0,0,0,5.41-2.28,43.08,43.08,0,0,0,27.66,0,7.66,7.66,0,0,0,5.41,2.28h.57a7.59,7.59,0,0,0,7.58-7.58,7.06,7.06,0,0,0-.3-2,43.09,43.09,0,0,0,15.12-25L86.6,38a78.59,78.59,0,0,0,1.51-15.3A22.7,22.7,0,0,0,65.43,0ZM44.06,21.4a2.38,2.38,0,0,0,2.06-1.14L50,13.66a17.91,17.91,0,0,1,33.37,9c0,.31,0,.62,0,.93H80.56v4.78h2.53A73.32,73.32,0,0,1,81.92,37l-.33,1.64A38.32,38.32,0,0,1,68.67,60.44l-3.85-5a32,32,0,0,0,10.55-18l.33-1.64c.36-1.77.64-3.57.85-5.36l.11-1-1-.11L72.91,29l-1-.11-.12,1c-.19,1.67-.46,3.34-.78,5l-.33,1.65a27.17,27.17,0,0,1-8.77,15.07L53,39.83,52.36,39l-.79.6-2.21,1.69-.8.6.61.8L50.88,45l-1.57,1.57-.7.7.7.71,2,2,.71.71.7-.71,1.11-1.1,7.89,10.35-1.26,1.27-.71.7.71.71,2,2,.71.71.7-.71.81-.8,1.49,2a2.81,2.81,0,0,1-2.23,4.5H63.3a2.82,2.82,0,0,1-2.23-1.11L41.46,42.61a2.8,2.8,0,0,1-.57-1.69,3,3,0,0,1,.16-.93l.59-.76-.12-.09a2.37,2.37,0,0,1,.27-.28l.73-.68-.68-.73-1.9-2-.68-.73-.73.68A8,8,0,0,0,37,37.45L26.2,51.58A27.2,27.2,0,0,1,17.42,36.5l-.32-1.63c-.25-1.22-.45-2.45-.62-3.64l-.13-1-1,.14-2.75.38-1,.14.14,1c.18,1.29.4,2.61.66,3.91l.33,1.64a32,32,0,0,0,10.56,18l-3.86,5.06A38.3,38.3,0,0,1,6.53,38.68L6.2,37A73.88,73.88,0,0,1,5,28.39H7.56V23.61H4.79c0-.31,0-.62,0-.93A17.74,17.74,0,0,1,11.18,9l2,2,.71.71.7-.71,2-2,.71-.71-.71-.71L15.31,6.37a17.89,17.89,0,0,1,22.83,7.29L42,20.26a2.38,2.38,0,0,0,2.07,1.14ZM27.63,57.58l9.64-12.65c.12.2.25.39.39.58L41.05,50l-14,18.38a2.83,2.83,0,0,1-2.23,1.11h-.57A2.81,2.81,0,0,1,22,65l2.69-3.53,1,1,.71.71.7-.71,2-2,.71-.71-.71-.7-1.45-1.46Zm13.2.56,3.23-4.24,3.22,4.24a26.51,26.51,0,0,1-3.22.19,26.79,26.79,0,0,1-3.23-.19ZM33.39,67.9l4.17-5.47a31.41,31.41,0,0,0,13,0l4.16,5.47a38.66,38.66,0,0,1-21.33,0Z"/><path class="cls-1" d="M29,19a7.28,7.28,0,0,0-13.58,3.67c0,1.07,0,2.15.08,3.22l0,.5-3.77.2,0-.5c-.06-1.13-.09-2.28-.09-3.42A11.07,11.07,0,0,1,32.24,17.1l4.89,8.38-3.27,1.9Z"/><path class="cls-1" d="M22.68,12.11a10.61,10.61,0,0,1,9.13,5.24l4.63,8L34,26.7l-4.63-7.95a7.79,7.79,0,0,0-14.52,3.93c0,1.08,0,2.17.08,3.25l-2.77.14q-.09-1.7-.09-3.39A10.58,10.58,0,0,1,22.68,12.11m0-1A11.58,11.58,0,0,0,11.11,22.68c0,1.15,0,2.3.09,3.44l.05,1,1-.05L15,26.93l1-.06,0-1c-.05-1.07-.08-2.14-.08-3.2a6.79,6.79,0,0,1,12.65-3.42l4.64,7.94.5.87.87-.51,2.4-1.4.86-.5-.5-.86-4.64-7.95a11.6,11.6,0,0,0-10-5.74Z"/><path class="cls-1" d="M52.22,23.53l.59-1.16,3.06-5.27A11.07,11.07,0,0,1,76.5,22.68c0,.66,0,1.33,0,2v.5l-3.78-.12,0-.5c0-.62,0-1.25,0-1.87A7.28,7.28,0,0,0,59.14,19l-3.58,6.22Z"/><path class="cls-1" d="M65.43,12.11A10.58,10.58,0,0,1,76,22.68c0,.66,0,1.32,0,2l-2.77-.08c0-.63,0-1.26,0-1.89A7.79,7.79,0,0,0,58.7,18.75l-3.34,5.82-2.47-1.26.36-.72,3.06-5.24a10.59,10.59,0,0,1,9.12-5.24m0-1a11.62,11.62,0,0,0-10,5.74l-3,5.24,0,0v0l-.36.72-.46.89.89.45,2.48,1.26.85.43.47-.82,3.34-5.82a6.79,6.79,0,0,1,12.65,3.43c0,.62,0,1.24,0,1.86l0,1,1,0,2.77.08,1,0,0-1q0-1,0-2A11.58,11.58,0,0,0,65.43,11.11Z"/><path class="cls-2" d="M50.63,43.17a6.17,6.17,0,0,1-2.77-.66L34.47,35.82a6.16,6.16,0,0,1-1-10.38,6.09,6.09,0,0,1-2.39-4.87,6.18,6.18,0,0,1,6.18-6.18h.25a6.26,6.26,0,0,1,2.76.65l13.39,6.7a6.15,6.15,0,0,1,1,10.38A6.09,6.09,0,0,1,57.06,37a6.19,6.19,0,0,1-6.18,6.18Z"/><path class="cls-2" d="M37.49,14.89a5.72,5.72,0,0,1,2.54.6l13.39,6.69a5.66,5.66,0,0,1,.36,9.94A5.63,5.63,0,0,1,56.56,37a5.69,5.69,0,0,1-5.68,5.68h-.25a5.79,5.79,0,0,1-2.55-.6L34.7,35.37a5.66,5.66,0,0,1-.37-9.93,5.63,5.63,0,0,1-2.77-4.87,5.69,5.69,0,0,1,5.68-5.68h.25m0-1h-.25a6.69,6.69,0,0,0-6.68,6.68,6.61,6.61,0,0,0,2.11,4.87,6.67,6.67,0,0,0,1.58,10.83L47.64,43a6.71,6.71,0,0,0,3,.71h.25A6.69,6.69,0,0,0,57.56,37a6.56,6.56,0,0,0-2.12-4.87,6.57,6.57,0,0,0,2.12-4.86,6.65,6.65,0,0,0-3.7-6L40.48,14.6a6.61,6.61,0,0,0-3-.71Z"/></g></g></svg>