<svg xmlns="http://www.w3.org/2000/svg" viewBox="0 0 125.21 125.21"><defs><style>.cls-1{fill:#6466ad;}.cls-2{fill:#fff;}</style></defs><g id="Layer_2" data-name="Layer 2"><g id="Layer_1-2" data-name="Layer 1"><rect class="cls-1" width="125.21" height="125.21" rx="31.5"/><path class="cls-2" d="M91,102.41H82a9.31,9.31,0,0,1-9.39-9.29v-26H58.69v35.25s-3,.08-9,.08a9.17,9.17,0,0,1-7.51-3.7,9.27,9.27,0,0,1-1.88-5.59V41.8c0-2.87-1-4.71-2.93-5.51a3.64,3.64,0,0,0-1.65-.38,7.11,7.11,0,0,0-4.58,1.89,11.2,11.2,0,0,0-3.68,8.6A6.35,6.35,0,0,1,31,43.53a7,7,0,0,1,1.88-.3,6.3,6.3,0,0,1,6.31,6.34A6.19,6.19,0,0,1,37,54.33a6.58,6.58,0,0,1-4.21,1.43,8.85,8.85,0,0,1-6.6-2.87,13.48,13.48,0,0,1-3-8.9,17.17,17.17,0,0,1,3.38-10.27Q32,26.78,42.24,26.78h7a9.28,9.28,0,0,1,9.46,9.13V62H72.58V26.85q0-.08,9.23-.07t9.17.07Z"/></g></g></svg>