<svg xmlns="http://www.w3.org/2000/svg" viewBox="0 0 284.07 297.28"><defs><style>.cls-1,.cls-3{fill:#6466ad;}.cls-1{opacity:0.1;isolation:isolate;}.cls-2{fill:#ffadb5;}</style></defs><g id="Layer_2" data-name="Layer 2"><g id="Layer_1-2" data-name="Layer 1"><circle class="cls-1" cx="146.28" cy="159.49" r="137.79"/><path class="cls-2" d="M168.68,191.35a13.45,13.45,0,0,1,.85,4.59l-6.2,23.56,1.61,3.93h91.64L265,191.35Z"/><polygon class="cls-3" points="19.05 250.92 27.49 282.99 146.62 282.99 155.06 250.92 19.05 250.92"/><path class="cls-2" d="M160.17,180.87c-.32-1.05-8.06-26-34.3-40h0a11,11,0,0,1-4.73,3.54c-6.68,2.6-18,5.72-34.08,5.72S59.66,147,53,144.4a11.16,11.16,0,0,1-4.72-3.54h0c-26.25,14-34,39-34.3,40l.26,2a13.45,13.45,0,0,1,4.13-.7,13.74,13.74,0,0,1,13.74,13.75,13.75,13.75,0,1,1,27.49,0,13.75,13.75,0,1,1,27.49,0,13.75,13.75,0,1,1,27.49,0,13.75,13.75,0,0,1,27.5,0,13.74,13.74,0,0,1,13.74-13.75,13.4,13.4,0,0,1,4.4.79Z"/><path class="cls-3" d="M270.2,118.66A132.63,132.63,0,0,0,211.1,12L193.15,0,190.7,26.93a37.7,37.7,0,0,1-29.8,33.62,47.3,47.3,0,0,0-37.19,46v12.13c-.45.12-.9.2-1.34.35a15.63,15.63,0,0,0-3.37-.8,27.63,27.63,0,0,0-10.87-19.9,18.4,18.4,0,0,1-7.33-14.66V68.54L76.56,83.69a45.57,45.57,0,0,0-21.3,34.54,15.81,15.81,0,0,0-3.94,30.44c7.07,2.75,19,6,35.73,6s28.67-3.28,35.74-6a15.84,15.84,0,0,0,8.88-20.8,9.16,9.16,0,0,1,5.78,8.5l2.23,14.14a74.47,74.47,0,0,1,11.24,12.54l-4.28-26.9a9.15,9.15,0,0,1,18.3.22L170,184.51a18.19,18.19,0,0,0-28-.68,18.31,18.31,0,0,0-27.5,0,18.3,18.3,0,0,0-27.49,0,18.3,18.3,0,0,0-27.49,0,18.3,18.3,0,0,0-27.49,0A18.32,18.32,0,0,0,0,195.94l24,91.63H150.14L165.82,228h94.29l23.8-90.47.16-1.17A18.3,18.3,0,0,0,270.2,118.66Zm-9.16.06a18.38,18.38,0,0,0-9,5.54,18.4,18.4,0,0,0-9.26-5.61,232.21,232.21,0,0,0-16.38-82A123.44,123.44,0,0,1,261,118.72ZM119.47,140.13c-6.34,2.46-17.11,5.41-32.42,5.41S61,142.59,54.64,140.13a6.63,6.63,0,0,1-4.24-6.23,6.7,6.7,0,0,1,6.69-6.69H73.31V118H64.43a36.5,36.5,0,0,1,17-26.58l10.25-6.4a27.59,27.59,0,0,0,11,20.61A18.34,18.34,0,0,1,109.69,118H100.8v9.17H117a6.69,6.69,0,0,1,2.45,12.92ZM142,124.26a18.45,18.45,0,0,0-9.17-5.58V106.56a38.09,38.09,0,0,1,30-37,46.81,46.81,0,0,0,36.26-36.8,37.72,37.72,0,0,1-20.79,42.4,46.8,46.8,0,0,0-27.1,42.36v1.22A18.29,18.29,0,0,0,142,124.26Zm18.32-5.58v-1.21a37.61,37.61,0,0,1,21.78-34,46.92,46.92,0,0,0,24.29-58.29l-2.54-7L206,19.58c1.65,1.1,3.24,2.27,4.82,3.44l5.57,13.25a223.48,223.48,0,0,1,17.17,82.44,18.3,18.3,0,0,0-9.07,5.55,18.3,18.3,0,0,0-27.49,0,18.42,18.42,0,0,0-8.68-5.41,16.21,16.21,0,0,1,9.37-11.17l6.8-2.92A25.48,25.48,0,0,0,219.3,87l-8.94-2a16.28,16.28,0,0,1-9.46,11.38l-6.79,2.92A25.35,25.35,0,0,0,179,118.56a18.34,18.34,0,0,0-9.51,5.7A18.45,18.45,0,0,0,160.36,118.68Zm22.91,8.53a9.17,9.17,0,0,1,9.16,9.16v82.47h-9.62l-8.69-82.59A9.16,9.16,0,0,1,183.27,127.21Zm18.33,9.16a9.16,9.16,0,0,1,18.31-.12l-8.69,82.59H201.6V136.37Zm-73.31,50.4a9.16,9.16,0,0,1,9.14,8.95l-13.05,82.69H110.47l8.63-82v-.47h0A9.17,9.17,0,0,1,128.29,186.77Zm-27.49,0a9.17,9.17,0,0,1,9.15,9l-8.69,82.6H91.64V195.94A9.17,9.17,0,0,1,100.8,186.77Zm-27.49,0a9.17,9.17,0,0,1,9.16,9.17v82.47H72.85l-8.69-82.6A9.17,9.17,0,0,1,73.31,186.77ZM9.18,195.4a9.16,9.16,0,0,1,18.31.54l3.68,23.62,9-1.43-3.53-22.41a9.15,9.15,0,0,1,18.3.22l8.66,82.47H49.73l-8.07-51.12-9,1.43,7.85,49.69H31Zm133.9,83h-9.43l12.9-81.76,0-.71h.05a9.16,9.16,0,0,1,18.31-.54Zm29-74.15,1.53,14.58h-5.37Zm81,14.58h-9.44l1.33-8.44L235.89,209l-1.55,9.87H220.43l8.63-82v-.48h0a9.15,9.15,0,0,1,18.3-.22l-10,63.65,9,1.43,10.13-64.14v-.72h.05a9.16,9.16,0,0,1,18.31-.53Z"/><rect class="cls-3" x="210.76" y="67.65" width="9.16" height="9.16"/></g></g></svg>