<svg xmlns="http://www.w3.org/2000/svg" viewBox="0 0 275.58 280.99"><defs><style>.cls-1,.cls-2{fill:#6466ad;}.cls-1{opacity:0.1;isolation:isolate;}.cls-3{fill:#ffadb5;}</style></defs><g id="Layer_2" data-name="Layer 2"><g id="Layer_1-2" data-name="Layer 1"><circle class="cls-1" cx="137.79" cy="143.19" r="137.79"/><path class="cls-2" d="M32.25,254.73l-8.19-24.58H10.55v-8.69H35.13V188.68h8.7v32.78h89.62V205.07h8.69v16.39h89.62V123.64H215.37V115h16.39V111.1a12.05,12.05,0,0,0-12-12H142.14V115h65.54v8.69H142.14v73.74h-8.69V123.64H113V115h20.49V99.06H108.87V90.37H120a28.07,28.07,0,0,1,1.21-38.47l10.41-10.4a20.12,20.12,0,0,0,5.92-14.19,29.62,29.62,0,0,1-14.61,12.08A21,21,0,0,0,109.37,59v7.33H105a12,12,0,1,0,0,24.08h.25v8.69H105a20.73,20.73,0,0,1-4.28-41,29.83,29.83,0,0,1,19.14-26.8,21,21,0,0,0,13.57-19.58V10.41a10.15,10.15,0,0,1,17.28-7.24l8.14,8C171.66,24,174.36,46,174.83,58.05A20.79,20.79,0,0,1,191.3,78.33a20.44,20.44,0,0,1-4,12h32.38a20.75,20.75,0,0,1,20.73,20.73V221.46H265v8.69H251.52l-8.19,24.58ZM237.07,246l5.3-15.88H33.22L38.52,246ZM170.56,90.37a12,12,0,0,0,0-24.08h-4.34V62c0-13.63-3-31.58-11.41-42.12a65.79,65.79,0,0,1,.74,43.55,21.91,21.91,0,0,0,11,26.51l1,.48Zm-17.27,0a30.48,30.48,0,0,1-6-29.75,56.86,56.86,0,0,0-.7-37.9l-.37-1v5.45a28.69,28.69,0,0,1-8.47,20.45l-10.4,10.41a19.47,19.47,0,0,0,5,31.17l2.32,1.15Z"/><path class="cls-2" d="M143.6.5a9.82,9.82,0,0,1,7,2.85l8.15,8c13.05,13.05,15.49,36,15.89,46.88a20.53,20.53,0,0,1,16.46,20.08,20.28,20.28,0,0,1-4.21,12.29h32.88A20.51,20.51,0,0,1,240.2,111.1V221.7h24.58v8.2H251.34l-8.19,24.58H32.43L24.24,229.9H10.8v-8.2H35.38V188.93h8.2V221.7H133.7V205.32h8.19V221.7H232V123.39H215.62V115.2H232v-4.1a12.31,12.31,0,0,0-12.29-12.29H141.89V115.2h65.54v8.19H141.89v73.74H133.7V123.39H113.21V115.2H133.7V98.81H109.12V90.62h11.44a27.82,27.82,0,0,1,.83-38.54L131.8,41.67a20.37,20.37,0,0,0,6-14.48v-.77a29.33,29.33,0,0,1-14.95,12.74A21.24,21.24,0,0,0,109.12,59V66H105a12.29,12.29,0,1,0,0,24.58v8.19a20.48,20.48,0,0,1-4-40.56,29.46,29.46,0,0,1,19-26.77A21.25,21.25,0,0,0,133.7,11.67V10.41A9.91,9.91,0,0,1,143.6.5m23.83,90.12h3.13a12.29,12.29,0,0,0,0-24.58h-4.09V62c0-14.48-3.34-33.09-12.41-43.4l.45,1.21a65.45,65.45,0,0,1,.8,43.54,22.17,22.17,0,0,0,11.11,26.81l1,.51m-32.76,0h19.18A30.14,30.14,0,0,1,146,70.3a30.45,30.45,0,0,1,1.56-9.6,57.23,57.23,0,0,0-.7-38.07L146,20.36v6.83a28.52,28.52,0,0,1-8.39,20.28l-10.41,10.4a19.72,19.72,0,0,0,5.12,31.57l2.37,1.18M38.34,246.28H237.25l5.46-16.38H32.88l5.46,16.38M143.6,0a10.41,10.41,0,0,0-10.4,10.41v1.26A20.74,20.74,0,0,1,119.79,31a30.12,30.12,0,0,0-19.3,26.84A21,21,0,0,0,105,99.31h.5V90.12H105a11.79,11.79,0,1,1,0-23.58h4.6V59A20.73,20.73,0,0,1,123,39.63,29.91,29.91,0,0,0,137.27,28.2a19.89,19.89,0,0,1-5.83,13.12L121,51.72a28.32,28.32,0,0,0-1.59,38.4H108.62v9.19H133.2V114.7H112.71v9.19H133.2v73.74h9.19V123.89h65.54V114.7H142.39V99.31h77.33a11.8,11.8,0,0,1,11.79,11.79v3.6H215.12v9.19h16.39V221.2H142.39V204.82H133.2V221.2H44.08V188.43h-9.2V221.2H10.3v9.2H23.88L32,254.63l.12.35H243.51l.12-.35,8.07-24.23h13.58v-9.2H240.7V111.1a21,21,0,0,0-21-21h-31.9a20.63,20.63,0,0,0,3.73-11.79,21,21,0,0,0-16.48-20.48c-.49-12.18-3.24-34-16-46.84L150.9,3a10.3,10.3,0,0,0-7.3-3Zm24,90.12-.9-.45a21.65,21.65,0,0,1-10.86-26.21,66,66,0,0,0-.2-42.17C163.2,31.9,166,48.91,166,62v4.59h4.59a11.79,11.79,0,0,1,0,23.58Zm-32.77,0L132.53,89a19.21,19.21,0,0,1-5-30.77l10.4-10.4a29,29,0,0,0,8.54-20.63V23.12a56.67,56.67,0,0,1,.59,37.43,30.69,30.69,0,0,0,5.67,29.57ZM33.57,230.4H242l-5.13,15.38H38.7L33.57,230.4Z"/><rect class="cls-2" x="158.02" y="135.43" width="8.69" height="8.69"/><path class="cls-2" d="M166.47,135.68v8.19h-8.2v-8.19h8.2m.5-.5h-9.2v9.19H167v-9.19Z"/><rect class="cls-2" x="186.7" y="147.72" width="8.69" height="8.69"/><path class="cls-2" d="M195.14,148v8.19H187V148h8.19m.5-.5h-9.19v9.19h9.19v-9.19Z"/><rect class="cls-2" x="215.37" y="139.53" width="8.69" height="8.69"/><path class="cls-2" d="M223.82,139.78V148h-8.2v-8.19h8.2m.5-.5h-9.2v9.19h9.2v-9.19Z"/><rect class="cls-2" x="211.28" y="172.3" width="8.69" height="8.69"/><path class="cls-2" d="M219.72,172.55v8.19h-8.19v-8.19h8.19m.5-.5H211v9.19h9.19v-9.19Z"/><rect class="cls-2" x="211.28" y="205.07" width="8.69" height="8.69"/><path class="cls-2" d="M219.72,205.32v8.19h-8.19v-8.19h8.19m.5-.5H211V214h9.19v-9.19Z"/><rect class="cls-2" x="182.6" y="180.49" width="8.69" height="8.69"/><path class="cls-2" d="M191.05,180.74v8.19h-8.2v-8.19h8.2m.5-.5h-9.2v9.19h9.2v-9.19Z"/><rect class="cls-2" x="149.83" y="168.2" width="8.69" height="8.69"/><path class="cls-2" d="M158.27,168.45v8.19h-8.19v-8.19h8.19m.5-.5h-9.19v9.19h9.19V168Z"/><rect class="cls-2" x="162.12" y="205.07" width="8.69" height="8.69"/><path class="cls-2" d="M170.56,205.32v8.19h-8.19v-8.19h8.19m.5-.5h-9.19V214h9.19v-9.19Z"/><path class="cls-3" d="M35.38,193a12.31,12.31,0,0,1-12.29-12.29V111.1A20.51,20.51,0,0,1,43.58,90.62h69.63v45.06a12.29,12.29,0,1,1-24.57,0V123.39a4.1,4.1,0,0,0-8.2,0v41a12.29,12.29,0,0,1-24.58,0V135.68a4.1,4.1,0,1,0-8.19,0v45.06A12.3,12.3,0,0,1,35.38,193Z"/></g></g></svg>