<svg xmlns="http://www.w3.org/2000/svg" viewBox="0 0 289.44 275.58"><defs><style>.cls-1,.cls-3{fill:#6466ad;}.cls-1{opacity:0.1;isolation:isolate;}.cls-2{fill:#ffadb5;}</style></defs><g id="Layer_2" data-name="Layer 2"><g id="Layer_1-2" data-name="Layer 1"><circle class="cls-1" cx="145.57" cy="137.79" r="137.79"/><path class="cls-2" d="M154.06,123.35v67.41a9.34,9.34,0,0,0,18.67,0V154a9.34,9.34,0,0,1,18.68,0v18.1a9.34,9.34,0,0,0,18.67,0V144.65a9.34,9.34,0,0,1,18.67,0v4.1a9.34,9.34,0,0,0,18.68,0V135.31a9.34,9.34,0,0,1,18.67,0v27.44a9.34,9.34,0,1,0,18.67,0V100Z"/><path class="cls-3" d="M201.3,57.81,0,96.15V196.42l88.14,39.17,201.3-38.34V97Zm67.94,40.41-34.56,6.58L165.62,74.11l34.56-6.59Zm-259.9,9L84,140.39v13.13L9.34,120.32Zm79.92,25.3L20.2,101.8l34.56-6.58,69.06,30.7Zm50.65-9.65L70.85,92.16l31.3-6,69.06,30.7Zm47.39-9-69.06-30.7,31.29-6,69.06,30.69Zm-178,16.71L84,163.74v59.81L9.34,190.35Zm84,94.54V164.53l60.69-12.14v-9.52L93.37,155V141.22l186.74-35.57v83.87Z"/><rect class="cls-3" x="18.67" y="151.37" width="9.34" height="9.34"/><rect class="cls-3" x="32.68" y="179.38" width="9.34" height="9.34"/><rect class="cls-3" x="60.69" y="170.04" width="9.34" height="9.34"/><rect class="cls-3" x="102.71" y="188.71" width="9.34" height="9.34"/><rect class="cls-3" x="130.72" y="170.04" width="9.34" height="9.34"/></g></g></svg>