<svg xmlns="http://www.w3.org/2000/svg" viewBox="0 0 220.82 34.08"><defs><style>.cls-1{fill:#fff;}</style></defs><g id="Layer_2" data-name="Layer 2"><g id="Layer_1-2" data-name="Layer 1"><path class="cls-1" d="M30.62,34H26.56a4.19,4.19,0,0,1-4.24-4.18V18.14H16V34S14.69,34,12,34a4.21,4.21,0,0,1-4.24-4.18V6.78A2.36,2.36,0,0,0,6.41,4.31a1.56,1.56,0,0,0-.75-.17A3.21,3.21,0,0,0,3.59,5,5,5,0,0,0,1.93,8.85a2.9,2.9,0,0,1,1.6-1.29,3.09,3.09,0,0,1,.85-.13,3,3,0,0,1,2,.81,3,3,0,0,1,.84,2,2.73,2.73,0,0,1-1,2.13,3,3,0,0,1-1.9.65,4,4,0,0,1-3-1.29A6,6,0,0,1,0,7.77,7.69,7.69,0,0,1,1.53,3.15,8.51,8.51,0,0,1,8.61,0h3.16a4.17,4.17,0,0,1,3.59,1.9A4.08,4.08,0,0,1,16,4.14v11.7h6.28V.07s1.39,0,4.17,0,4.13,0,4.13,0Z"/><path class="cls-1" d="M44.53,34a11.86,11.86,0,0,1-11.8-11.87,12,12,0,0,1,1.86-6.41,11.83,11.83,0,0,1,4.75-4.27,11.51,11.51,0,0,1,5.22-1.19,12.46,12.46,0,0,1,4.31.78A12.14,12.14,0,0,1,54.6,15.8a11.87,11.87,0,0,1-5.83,17.4A11.76,11.76,0,0,1,44.53,34Zm0-2.54c.82,0,1.55-.7,2.21-2.1a16.89,16.89,0,0,0,1.29-7.23,20.65,20.65,0,0,0-1-6.51c-.73-2-1.57-2.95-2.55-2.95q-1.83,0-2.91,4.21a22.46,22.46,0,0,0-.58,5.25,20.68,20.68,0,0,0,.85,6.17C42.64,30.39,43.52,31.44,44.56,31.44Z"/><path class="cls-1" d="M92.35,34H88.14a4.14,4.14,0,0,1-2.64-1,4.42,4.42,0,0,1-1.39-2.34Q84,30.23,84,17.09c0-2.24-.63-3.35-1.9-3.35-.9,0-1.81.78-2.71,2.34q0,.36,0,17.9h-4.2a4.07,4.07,0,0,1-2.68-1,4.19,4.19,0,0,1-1.43-3.12V16.89c0-2.1-.63-3.15-1.9-3.15-.92,0-1.81.74-2.64,2.23V34H58.27V10.24H62.5a4.19,4.19,0,0,1,2.38.78,3.63,3.63,0,0,1,1.19,1.36,3.52,3.52,0,0,1,.44,1.12,7.57,7.57,0,0,1,2.1-2,7.21,7.21,0,0,1,4.14-1.29A6.72,6.72,0,0,1,77.39,12a7.39,7.39,0,0,1,1.43,1.9.34.34,0,0,0,.1.2c1.79-2.6,4-3.9,6.71-3.9A6.77,6.77,0,0,1,90.25,12a6.54,6.54,0,0,1,2.1,4.88Z"/><path class="cls-1" d="M106.73,34a12.6,12.6,0,0,1-8.92-3.56A11.52,11.52,0,0,1,94.21,22a12.68,12.68,0,0,1,1.16-5.43,11,11,0,0,1,6-5.49,12.36,12.36,0,0,1,4.51-.85,9.52,9.52,0,0,1,6.38,2.17,6.6,6.6,0,0,1,2.24,5.09A6.67,6.67,0,0,1,112,22.38a10.85,10.85,0,0,1-6.92,2.38,13.9,13.9,0,0,1-2.37-.21A14.52,14.52,0,0,0,102.9,26a9.45,9.45,0,0,0,1.18,3.09,5.92,5.92,0,0,0,5.13,2.34,7.94,7.94,0,0,0,5-1.93A12.12,12.12,0,0,0,117,25.94h1.49l0,0a12.48,12.48,0,0,1-5.05,6.1A12.23,12.23,0,0,1,106.73,34ZM103.54,23.3a4.07,4.07,0,0,0,2.21-1.12,6,6,0,0,0,1.83-3,25.26,25.26,0,0,0,.13-3.43c0-2.28-.56-3.43-1.69-3.43-.77,0-1.53.59-2.27,1.77A9.71,9.71,0,0,0,102.63,19v3.16C102.63,22.92,102.93,23.3,103.54,23.3Z"/><path class="cls-1" d="M128.67,34a13.07,13.07,0,0,1-5.93-1.42,12.11,12.11,0,0,1-2.92-2.07,11.46,11.46,0,0,1-3.66-8.31,13,13,0,0,1,1-5.12A10.75,10.75,0,0,1,123,11.33a13.9,13.9,0,0,1,5.43-1.09,10.48,10.48,0,0,1,6,1.66,4.48,4.48,0,0,1,2.1,3.84,3.74,3.74,0,0,1-1.1,2.73,3.61,3.61,0,0,1-2.63,1.1,3.43,3.43,0,0,1-2.53-1.09A3.48,3.48,0,0,1,129.21,16a3.72,3.72,0,0,1,.75-2.1,2.86,2.86,0,0,1,1.26-1.08q-6.66.81-6.65,6.78v2.24a18.1,18.1,0,0,0,.68,5.73c1,2.6,2.91,3.9,5.9,3.9a7.82,7.82,0,0,0,5-1.93,11.72,11.72,0,0,0,2.78-3.57,11.36,11.36,0,0,1,1.46,0,12.28,12.28,0,0,1-7.05,7.12A12.75,12.75,0,0,1,128.67,34Z"/><path class="cls-1" d="M144.51,34.08a6,6,0,0,1-4-1.56,7.38,7.38,0,0,1-2.27-5.46,6,6,0,0,1,1.09-3.32,10,10,0,0,1,6.85-4.07c2.17-.54,3.43-1.51,3.8-2.92a6,6,0,0,0,.1-1.29,2.89,2.89,0,0,0-.83-2.2,3.37,3.37,0,0,0-2.39-.78,8.44,8.44,0,0,0-2.34.37A3.36,3.36,0,0,1,146,14.38a2.9,2.9,0,0,1,.48,1.59,3.68,3.68,0,0,1-1,2.51,3.77,3.77,0,0,1-2.78,1.26,3.45,3.45,0,0,1-2.3-.85A3.65,3.65,0,0,1,139.15,16a4.89,4.89,0,0,1,.85-2.68,6.8,6.8,0,0,1,3.36-2.44,14.25,14.25,0,0,1,5-.68q6,0,8.31,3.09a9.56,9.56,0,0,1,1.73,6V34h-4.17a4,4,0,0,1-2.81-1.15,5.1,5.1,0,0,1-1.06-1.53A8.21,8.21,0,0,1,144.51,34.08Zm2.14-2.1c.63,0,1.3-.47,2-1.42A8.33,8.33,0,0,0,150,25.77V19.53a6.25,6.25,0,0,1-2.38,2.28,14.39,14.39,0,0,0-1.18.91,5.21,5.21,0,0,0-1.53,4V28.9a4.44,4.44,0,0,0,.61,2.44A1.29,1.29,0,0,0,146.65,32Z"/><path class="cls-1" d="M184.33,34h-5a6,6,0,0,1-4.54-2.51,12.4,12.4,0,0,1-.92-1.29l-4.21-7.46-.16,0V34h-8.35V0h4.21a4.11,4.11,0,0,1,2.68,1,4.18,4.18,0,0,1,1.46,3.15V20.93a5.24,5.24,0,0,0,1.32.16,7.75,7.75,0,0,0,4.34-1.42,7.12,7.12,0,0,0,1.76-1.56,3.14,3.14,0,0,1-.88-.24,3.91,3.91,0,0,1-2.24-2.13,4.16,4.16,0,0,1-.3-1.56,4,4,0,0,1,4-4,4,4,0,0,1,2.88,1.25,4.57,4.57,0,0,1,1.08,3,7.91,7.91,0,0,1-1.05,3.8,8.3,8.3,0,0,1-3.08,3.19Z"/><path class="cls-1" d="M195.31,34a12.57,12.57,0,0,1-8.91-3.56A11.52,11.52,0,0,1,182.8,22,12.68,12.68,0,0,1,184,16.58a11,11,0,0,1,6-5.49,12.36,12.36,0,0,1,4.51-.85,9.5,9.5,0,0,1,6.37,2.17,6.45,6.45,0,0,1-.23,10,10.87,10.87,0,0,1-6.92,2.38,14.11,14.11,0,0,1-2.38-.21c0,.16.06.65.17,1.46a9.45,9.45,0,0,0,1.19,3.09,5.91,5.91,0,0,0,5.12,2.34,8,8,0,0,0,5-1.93,12.29,12.29,0,0,0,2.75-3.57h1.49l0,0a12.5,12.5,0,0,1-5.06,6.1A12.2,12.2,0,0,1,195.31,34ZM192.13,23.3a4.05,4.05,0,0,0,2.2-1.12,6,6,0,0,0,1.83-3,24.58,24.58,0,0,0,.14-3.43c0-2.28-.57-3.43-1.7-3.43-.77,0-1.52.59-2.27,1.77A9.82,9.82,0,0,0,191.21,19v3.16C191.21,22.92,191.52,23.3,192.13,23.3Z"/><path class="cls-1" d="M212,34a11.08,11.08,0,0,1-4.41-.85c-2.1-.92-3.16-2.36-3.16-4.3a3.81,3.81,0,0,1,1-2.78,3,3,0,0,1,2.07-.75,3.22,3.22,0,0,1,2.1.78,3.15,3.15,0,0,1,1,2.31,3.08,3.08,0,0,1-.92,2.2,3.43,3.43,0,0,1-2.44.88,3,3,0,0,0,2,.72,3.52,3.52,0,0,0,2.11-.72,3.43,3.43,0,0,0,1.29-2.74,5.45,5.45,0,0,0-.82-2.75A13.43,13.43,0,0,0,209.22,23a20.74,20.74,0,0,1-3.15-3.26A6.34,6.34,0,0,1,204.81,16a4.78,4.78,0,0,1,2.27-4,11.17,11.17,0,0,1,6.38-1.8,10.65,10.65,0,0,1,4.37.85A5.18,5.18,0,0,1,220,12.75a4,4,0,0,1,.85,2h-1.6s-.05-.08-.1-.24a3.62,3.62,0,0,0-1.9-1.63,4.28,4.28,0,0,0-1.62-.34,3,3,0,0,0-1.87.58,2.57,2.57,0,0,0-.95,2.14,5.47,5.47,0,0,0,.75,2.67,12.63,12.63,0,0,0,2.78,3.16,21.05,21.05,0,0,1,3.22,3.36,6.58,6.58,0,0,1,1.22,3.73A4.45,4.45,0,0,1,219.8,31a4.58,4.58,0,0,1-1.63,1.43A11.26,11.26,0,0,1,212,34Z"/></g></g></svg>