<svg xmlns="http://www.w3.org/2000/svg" viewBox="0 0 248.63 71.22"><defs><style>.cls-1{fill:none;}.cls-2{fill:#6466ad;}</style></defs><g id="Layer_2" data-name="Layer 2"><g id="Layer_1-2" data-name="Layer 1"><rect class="cls-1" width="248.63" height="71.22"/><path class="cls-2" d="M20.23,6.16a5.18,5.18,0,0,1,5.2,5.2V28.25a5.18,5.18,0,0,1-5.2,5.21h0A5.18,5.18,0,0,1,15,28.25V11.3a5.16,5.16,0,0,1,5.2-5.14Z"/><path class="cls-2" d="M20.23,37.12a5.24,5.24,0,0,1,5.2,5.33V59.79a5.24,5.24,0,0,1-5.2,5.33h0A5.24,5.24,0,0,1,15,59.79V42.45a5.24,5.24,0,0,1,5.2-5.33Z"/><path class="cls-2" d="M35.2,6.1a5.18,5.18,0,0,1,5.2,5.2V39a5.18,5.18,0,0,1-5.2,5.2h0A5.19,5.19,0,0,1,30,39V11.3A5.19,5.19,0,0,1,35.2,6.1Z"/><path class="cls-2" d="M35.33,47.65a5.18,5.18,0,0,1,5.2,5.2v7.07a5.18,5.18,0,0,1-5.2,5.2h0a5.19,5.19,0,0,1-5.21-5.2V52.85a5.19,5.19,0,0,1,5.21-5.2Z"/><path class="cls-2" d="M5.2,16.5A5.2,5.2,0,1,0,0,11.3,5.22,5.22,0,0,0,5.2,16.5Z"/><path class="cls-2" d="M0,25.3A5.24,5.24,0,0,1,5.2,20h0a5.28,5.28,0,0,1,5.21,5.27V59.79A5.25,5.25,0,0,1,5.2,65.06h0A5.24,5.24,0,0,1,0,59.79Z"/><path class="cls-2" d="M59.15,47.59c2.12.19,3.41.25,3.86.25,3.79,0,5.52-1.28,5.52-4.56v-27h7.9V44.06c0,7.19-4.17,10.79-11.75,10.79a23.76,23.76,0,0,1-5.53-.71Z"/><path class="cls-2" d="M106.3,49.9H90.5l-2.19,5H79.84L97.05,16.31h2.63l17.15,38.54h-8.48ZM98.4,30.76,93.26,43.54h10.28Z"/><path class="cls-2" d="M122.16,16.31h12.59c12.21-.13,21.2,7.77,21,19.14.2,11.17-8.79,19.59-21,19.4H122.16Zm12.53,31.41c7.77,0,13-4.82,13-12.27s-5.07-12-13-12H130V47.72Z"/><path class="cls-2" d="M248.31,22H248a4.61,4.61,0,0,1-1.35,3.22,4.49,4.49,0,0,1-3.21,1.35,4.58,4.58,0,0,1-3.21-1.35A4.46,4.46,0,0,1,238.87,22a4.56,4.56,0,0,1,1.35-3.21,4.46,4.46,0,0,1,3.21-1.35,4.6,4.6,0,0,1,3.21,1.35A4.49,4.49,0,0,1,248,22h.64a5.21,5.21,0,1,0-5.2,5.21,5.18,5.18,0,0,0,5.2-5.21Z"/><path class="cls-2" d="M244.52,24.21l-1.35-1.86h-1v1.86h-.52V19.84h1.54a1.29,1.29,0,0,1,1.42,1.29,1.24,1.24,0,0,1-.9,1.22l1.41,1.86Zm-2.31-2.31h1c.58,0,.9-.32.9-.77a.83.83,0,0,0-.9-.84h-1Z"/><path class="cls-2" d="M178.56,54.85H162.69V16.31h13.23a11.59,11.59,0,0,1,8,2.76,9,9,0,0,1,3,7,9.25,9.25,0,0,1-3.67,7.58,10,10,0,0,1,7.52,10.08C190.76,50.16,186.13,54.85,178.56,54.85ZM167.25,20.42V32.37h8.22c4.37,0,6.75-2.32,6.75-6s-2.32-6-6.75-6h-8.22Zm10.86,16.06H167.25V50.74h10.86c5.07,0,8-2.9,8-7.13S183.18,36.48,178.11,36.48Z"/><path class="cls-2" d="M198.4,16.31a3.35,3.35,0,0,1,3.34,3.27,3.26,3.26,0,0,1-3.34,3.28,3.32,3.32,0,0,1-3.4-3.28A3.36,3.36,0,0,1,198.4,16.31Z"/><rect class="cls-2" x="196.09" y="27.48" width="4.5" height="27.36"/><path class="cls-2" d="M220.75,25.17A14.84,14.84,0,1,1,205.85,40,14.81,14.81,0,0,1,220.75,25.17Zm0,4.18c-5.84,0-10.27,4.62-10.27,10.72a10.24,10.24,0,0,0,10.21,10.6A10.39,10.39,0,0,0,231,40.07C231,33.91,226.53,29.35,220.75,29.35Z"/></g></g></svg>