<svg xmlns="http://www.w3.org/2000/svg" viewBox="0 0 199.82 71.22"><defs><style>.cls-1{fill:none;}.cls-2{fill:#6466ad;fill-rule:evenodd;}</style></defs><g id="Layer_2" data-name="Layer 2"><g id="Layer_1-2" data-name="Layer 1"><rect class="cls-1" width="199.82" height="71.22"/><path class="cls-2" d="M11.29,19l1.56-7.3h4.08c3.12.12,4.12,1.55,3.67,3.65S18.54,18.84,15.38,19ZM7.94,34.75l2.17-10.24h5.24c7,0,12.11-2.26,13.59-9.21s-2.65-9.2-9.67-9.2H6.09L0,34.75Z"/><path class="cls-2" d="M26.79,34.75,32.88,6.1h7.54L38.1,17a9.45,9.45,0,0,1,6.82-2.78c4.29,0,6.87,2.78,5.94,7.19L48,34.75H40.48L43,23c.33-1.94.3-4-2-4-3.73,0-4.12,4.08-4.17,4.32L34.33,34.75Z"/><path class="cls-2" d="M59,28.36a3.85,3.85,0,0,1,2.55-2.66,10.68,10.68,0,0,1,4.21-.43C65.19,27.92,64.26,31,61,31a2,2,0,0,1-2-2.62Zm12.25,6.39c.23-2.38.26-3.26.43-4.09l2.18-10.24c1-4.48-3.49-6.19-7.54-6.19a18.87,18.87,0,0,0-7.12,1.19,7.13,7.13,0,0,0-4.59,5.36h7.11c.21-1.19,1.19-3,3-3.06,3-.11,2.1,2.43,1.73,4.17H64.09c-6.51,0-11.37,2-12.48,6.83-1,4.09,1,6.63,5.69,6.63a8.79,8.79,0,0,0,7-3.3h.08a11.39,11.39,0,0,0-.41,2.7Z"/><path class="cls-2" d="M85.32,18.56h.08c1.57-3.3,4.27-4.41,7.59-4.33l-1.36,6.39c-.55,0-1.07,0-1.58,0-3.94,0-5.79,2.38-6.48,6.19l-1.69,8H74.34L77.48,20a48.32,48.32,0,0,0,.85-5.12H86l-.67,3.73Z"/><path class="cls-2" d="M101.8,18.12h.08a9.13,9.13,0,0,1,7.79-3.77c2.42,0,4.89,1.27,5.21,3.69a10.41,10.41,0,0,1,7.87-3.81c4.29,0,6.87,2.78,5.94,7.19l-2.84,13.33h-7.54L120.8,23c.33-1.94.3-4-2-4-3.73,0-4.12,4.08-4.17,4.32l-2.43,11.43h-7.54L107.11,23c.33-1.94.3-4-2-4-3.73,0-4.12,4.08-4.17,4.32L98.47,34.75H90.93L94.07,20a48.32,48.32,0,0,0,.85-5.12h7.46l-.58,3.29Z"/><path class="cls-2" d="M136.58,28.36a3.85,3.85,0,0,1,2.55-2.66,10.71,10.71,0,0,1,4.22-.43c-.57,2.65-1.5,5.71-4.75,5.71a2,2,0,0,1-2-2.62Zm12.25,6.39c.23-2.38.26-3.26.43-4.09l2.18-10.24c1-4.48-3.49-6.19-7.53-6.19a18.8,18.8,0,0,0-7.12,1.19,7.09,7.09,0,0,0-4.59,5.36h7.1c.21-1.19,1.19-3,3-3.06,3-.11,2.11,2.43,1.73,4.17h-2.38c-6.51,0-11.37,2-12.48,6.83-.95,4.09,1,6.63,5.69,6.63a8.79,8.79,0,0,0,7.05-3.3H142a11.39,11.39,0,0,0-.41,2.7Z"/><path class="cls-2" d="M167.3,21.81a3.39,3.39,0,0,0-.1-2.34c-.32-.55-1-.87-2.16-.87-2.73,0-3.77,4.12-4.21,6.19S159.67,31,162.41,31c2.66-.2,3.41-2.22,3.79-4h7.54a9.75,9.75,0,0,1-4.43,6.27,15.34,15.34,0,0,1-7.51,2.11c-7.54,0-10.17-3.66-8.71-10.56,1.54-7.22,7.21-10.56,13.2-10.56,5.06-.08,9.4,1.91,8.55,7.58Z"/><polygon class="cls-2" points="199.82 14.83 183.13 42.37 176.19 42.37 180.49 35.35 176.52 14.83 184.58 14.83 185.56 28.68 185.64 28.68 192.88 14.83 199.82 14.83 199.82 14.83"/><polygon class="cls-2" points="86.27 56.21 90.5 36.29 98.04 36.29 93.81 56.21 86.27 56.21 86.27 56.21"/><path class="cls-2" d="M106.71,39.58h.08a9.14,9.14,0,0,1,7.78-3.76c2.42,0,4.89,1.26,5.21,3.69a10.41,10.41,0,0,1,7.88-3.82c4.28,0,6.86,2.78,5.93,7.19l-2.84,13.33h-7.53l2.48-11.7c.34-1.95.31-4-2-4-3.73,0-4.13,4.09-4.18,4.32l-2.43,11.43h-7.54L112,44.51c.34-1.95.31-4-2-4-3.72,0-4.12,4.09-4.17,4.32l-2.43,11.43H95.83L99,41.41a51,51,0,0,0,.85-5.12h7.46l-.58,3.29Z"/><path class="cls-2" d="M142,43.71c.68-2.26,1.71-4.13,4.35-4.25a2.26,2.26,0,0,1,2.35,1.28,4.55,4.55,0,0,1,.28,3Zm13.26,4c1.58-7.42,0-12.07-8.11-12.07-6,0-11.47,3.58-12.81,9.89-1.66,7.81.79,11.23,8.76,11.23a13.52,13.52,0,0,0,6.64-1.55,9.64,9.64,0,0,0,4.95-5.56h-7a4.23,4.23,0,0,1-4.3,2.86c-2.82,0-3-2.22-2.43-4.8Z"/><path class="cls-2" d="M167.9,42.44a2.19,2.19,0,0,0-.13-1.67,2.16,2.16,0,0,0-1.91-.71,2.1,2.1,0,0,0-2.17,1.79c-.31,1.46,2.77,1.38,7.18,2.85,2.22.76,3.53,2.23,2.84,5.48-1.12,5.28-6.37,6.63-10.93,6.63-4.88,0-9.43-1-8.1-7.07h7.14a2,2,0,0,0,.14,1.79,1.84,1.84,0,0,0,1.59.91c1.46,0,2.65-.55,2.93-1.82.75-3.54-11.49-1.43-9.95-8.65,1-4.93,6.57-6.28,10.54-6.28,4.72,0,8.82,1.24,8,6.75Z"/><polygon class="cls-2" points="71.18 42.02 62.41 42.02 63.59 36.47 89.27 36.47 88.09 42.02 79.12 42.02 74.21 65.12 66.27 65.12 71.18 42.02 71.18 42.02"/></g></g></svg>