<svg xmlns="http://www.w3.org/2000/svg" viewBox="0 0 106.81 71.22"><defs><style>.cls-1{fill:none;}.cls-2{fill:#6466ad;fill-rule:evenodd;}</style></defs><g id="Layer_2" data-name="Layer 2"><g id="Layer_1-2" data-name="Layer 1"><rect class="cls-1" width="106.81" height="71.22"/><polygon class="cls-2" points="54.55 28.94 58.29 26.44 62.09 24.21 64.69 22.85 67.34 21.6 70.04 20.46 72.8 19.47 75.61 18.59 71.5 20.72 68.48 22.44 65.62 24.31 63.75 25.71 61.98 27.17 60.32 28.73 88.71 28.73 89.59 27.75 90.58 26.81 91.57 25.92 92.56 25.04 93.65 24.26 95.83 22.75 98.12 21.45 100.51 20.3 103.01 19.26 105.51 18.38 106.81 18.01 93.03 18.01 86.94 17.96 77.11 18.01 68.48 18.12 61.41 18.38 57.88 18.53 50.8 19 45.6 19.47 40.45 20.04 35.52 20.72 30.78 21.55 27.71 22.23 24.8 22.96 22 23.74 19.34 24.62 16.85 25.56 14.56 26.6 13.47 27.12 11.39 28.32 10.45 28.94 54.55 28.94 54.55 28.94"/><path class="cls-2" d="M103.74,10.83a3,3,0,1,1-6,0,3,3,0,1,1,6,0Z"/><polygon class="cls-2" points="19.6 7.92 35.31 7.92 36.71 8.02 38.17 8.23 39.26 8.49 40.2 8.8 41.39 9.42 42.48 10.21 44.09 11.51 48.1 15.41 48.57 15.88 32.91 15.88 30.99 15.72 29.8 15.57 28.7 15.31 27.66 14.99 26.62 14.53 25.64 14.01 24.65 13.28 23.92 12.65 23.19 11.82 21.63 9.79 21.01 9.11 19.97 8.18 19.6 7.92 19.6 7.92"/><polygon class="cls-2" points="42.74 7.92 58.45 7.92 59.85 8.02 61.31 8.23 62.4 8.49 63.33 8.8 64.53 9.42 65.67 10.21 67.23 11.51 71.24 15.41 71.76 15.88 56.05 15.88 54.13 15.72 52.99 15.57 51.84 15.31 50.8 14.99 49.76 14.53 48.77 14.01 47.79 13.28 47.06 12.65 46.33 11.82 44.77 9.79 43.84 8.8 43.11 8.18 42.74 7.92 42.74 7.92"/><polygon class="cls-2" points="66.66 8.12 82.37 8.12 83.77 8.23 85.28 8.44 86.32 8.7 87.31 9.01 88.5 9.63 91.62 11.45 93.44 12.39 95.11 13.12 96.98 13.85 99.21 14.58 101.87 15.36 104.88 16.09 79.97 16.09 78.05 15.93 76.91 15.77 75.81 15.51 74.72 15.2 73.73 14.73 72.69 14.16 71.71 13.48 70.98 12.86 70.25 11.97 68.69 10 67.75 8.96 67.08 8.38 66.66 8.12 66.66 8.12"/><polygon class="cls-2" points="8.48 33.26 0 62.3 11.23 62.3 19.71 33.26 8.48 33.26 8.48 33.26"/><path class="cls-2" d="M48.67,49.14c.16,8.27,5.57,14.78,13.52,14.31s15.08-7.76,14.92-16-6.34-14.68-14.3-14.16-14.24,7.6-14.14,15.88Zm10.61-.63c0,2.14,1.4,3.8,3.43,3.7a4.18,4.18,0,0,0,3.8-4.11,3.46,3.46,0,0,0-3.64-3.6,3.91,3.91,0,0,0-3.59,4Z"/><polygon class="cls-2" points="28.81 48.35 28.86 49.08 29.07 49.81 29.43 50.38 29.85 50.91 30.42 51.32 30.99 51.63 31.72 51.79 32.45 51.84 33.02 51.74 33.59 51.58 34.16 51.32 34.63 50.96 35.31 50.28 35.83 49.4 36.09 48.72 46.9 48.72 42.85 62.98 38.01 62.98 37.54 61.73 36.19 62.35 35.52 62.56 34.11 62.93 33.38 63.03 31.93 63.19 30.42 63.19 29.02 62.98 28.34 62.88 27.04 62.46 25.79 61.94 24.65 61.31 23.55 60.53 22.57 59.65 21.68 58.66 20.9 57.62 20.18 56.42 19.86 55.8 19.29 54.55 18.88 53.2 18.56 51.74 18.36 50.28 18.25 48.77 18.3 47.26 18.51 45.75 18.82 44.3 19.29 42.94 19.91 41.59 20.59 40.34 21.42 39.14 22.36 38.05 23.35 37.06 24.49 36.12 25.64 35.34 26.94 34.67 27.56 34.35 28.91 33.89 30.37 33.52 31.09 33.37 32.55 33.26 45.19 33.26 42.12 44.14 33.07 44.14 32.29 44.24 31.51 44.45 30.78 44.87 30.11 45.34 29.59 45.96 29.17 46.69 28.86 47.47 28.81 48.35 28.81 48.35"/><polygon class="cls-2" points="80.03 51.32 84.91 34.04 95.89 34.04 90.84 52.36 100.51 52.36 97.55 62.98 89.02 62.98 88.24 62.93 87.51 62.88 86.79 62.77 86.11 62.67 85.49 62.51 84.91 62.35 84.34 62.15 83.82 61.89 83.3 61.63 82.89 61.37 82.42 61.05 82.05 60.69 81.64 60.33 81.33 59.96 81.01 59.6 80.75 59.18 80.49 58.71 80.29 58.3 80.08 57.83 79.92 57.36 79.82 56.89 79.71 56.42 79.61 55.9 79.56 55.43 79.56 53.87 79.61 53.35 79.66 52.88 79.77 52.36 79.87 51.84 80.03 51.32 80.03 51.32"/></g></g></svg>