<svg xmlns="http://www.w3.org/2000/svg" viewBox="0 0 231.61 71.22"><defs><style>.cls-1{fill:none;}.cls-2{fill:#6466ad;}</style></defs><g id="Layer_2" data-name="Layer 2"><g id="Layer_1-2" data-name="Layer 1"><rect class="cls-1" width="231.61" height="71.22"/><path class="cls-2" d="M45.71,15.43l-8.25,32.1,32.09,8.25L77.8,23.69ZM60,39.55l-6.26-1.62,1.61-6.26,6.27,1.61Z"/><path class="cls-2" d="M21.66,19C30,19,33.71,24,33.71,29a8.61,8.61,0,0,1-3.78,7.34c3.56,4,5.74,9.51,6.41,15.87H21.13c-.63-8.8-2.49-12.27-6.45-12.27V52.16H0V19Zm-7,13.21h.4c2.67,0,4-1,4-3.11a3.12,3.12,0,0,0-3.47-3.3h-.89Z"/><path class="cls-2" d="M102,19c10.72,0,12.86,5.43,12.86,9.25,0,2.71-1,5.2-4.32,7.12,4.18,2.22,5.21,4.76,5.21,7.6,0,5.12-3.61,9.16-11.35,9.16H81.23V19Zm-6,13.12h.36c3.2,0,4.4-.89,4.4-3.25,0-1.82-.89-3.2-3.87-3.2H95.9Zm0,12.72h.45c3.38,0,4.67-.93,4.67-3.42,0-2.18-1-3.74-4.09-3.74h-1Z"/><path class="cls-2" d="M120.19,19h14.68V43.85h12.85v8.31H120.19Z"/><path class="cls-2" d="M152.22,19V52.16h33.13V19ZM172,38.83h-6.47V32.36H172Z"/><path class="cls-2" d="M189.31,19h16l4.9,6.09L214.89,19h15.92L218.27,35.31l13.34,16.85H215.55l-5.25-6.58-5.07,6.58H189.31L202.25,35.4Z"/></g></g></svg>