<svg xmlns="http://www.w3.org/2000/svg" viewBox="0 0 103.97 63.54"><defs><style>.cls-1{fill:#fff;}.cls-2{fill:#ffadb5;}</style></defs><g id="Layer_2" data-name="Layer 2"><g id="Layer_1-2" data-name="Layer 1"><path class="cls-1" d="M95.3,23.1H20.22a8.67,8.67,0,1,0,0,17.33H95.3a8.67,8.67,0,1,0,0-17.33Zm0,11.56H20.22a2.89,2.89,0,0,1,0-5.78H95.3a2.89,2.89,0,1,1,0,5.78Z"/><path class="cls-1" d="M95.3,46.21H75.09V52H95.3a2.89,2.89,0,1,1,0,5.78H20.22a2.89,2.89,0,0,1,0-5.78H69.31V46.21H20.22a8.67,8.67,0,1,0,0,17.33H95.3a8.67,8.67,0,1,0,0-17.33Z"/><path class="cls-1" d="M20.22,17.33H40.43V11.55H20.22a2.89,2.89,0,1,1,0-5.77H95.3a2.89,2.89,0,1,1,0,5.77H46.21v5.78H95.3A8.67,8.67,0,1,0,95.3,0H20.22a8.67,8.67,0,1,0,0,17.33Z"/><path class="cls-2" d="M2.89,23.1H89.53a2.88,2.88,0,0,0,2.88-2.88h0a2.88,2.88,0,0,0-2.88-2.89H2.89A2.89,2.89,0,0,0,0,20.22H0A2.88,2.88,0,0,0,2.89,23.1Z"/><path class="cls-2" d="M2.89,46.21H89.53a2.89,2.89,0,0,0,2.88-2.89h0a2.89,2.89,0,0,0-2.88-2.89H2.89A2.89,2.89,0,0,0,0,43.32H0A2.89,2.89,0,0,0,2.89,46.21Z"/></g></g></svg>